# xmcd
# 
# Track frame offsets:
#     150
#     9618
#     27720
#     35255
#     54213
#     63535
#     75928
#     89483
#     125655
#     134405
#     145875
#     159378
#     171080
#     179673
#     190990
#     199948
#     260670
# 
# Disc length: 3901
# 
# Revision: 3
# Processed by: cddbd v1.5.2PL0 Copyright (c) Steve Scherf et al.
# Submitted via: fre:ac v1.0.17
# 
DISCID=f40f3b11
DTITLE=Maria Bethania - A Arte de Maria Bethania
DYEAR=0
DGENRE=
TTITLE0=A Tua Presenca
TTITLE1=Mariana, Mariana
TTITLE2=Dia 4 de Dezembro
TTITLE3=Pra Dizer Adeus
TTITLE4=Bom Conselho
TTITLE5=Olhe o Tempo Passando
TTITLE6=Drama
TTITLE7=Sinal Fechado/ Roda Viva/ Rosa dos Ventos/ Cala a Boca, Barbara/ Resposta/ Demoniaca
TTITLE8=Coracao Ateu
TTITLE9=Janelas Abertas No 2
TTITLE10=Bom Dia
TTITLE11=Mano Caetano
TTITLE12=Se Eu Morresse Amanha
TTITLE13=Iansa
TTITLE14=Estacio Holly Estacio
TTITLE15=Estrela do Mar /Meu Primeiro Amor/ Soneto/ Preciso Aprender a So Ser/ A Lenda do Abaete/ Oracao da Mae Menininha/ Filhos de Gandhi/ Texto de Clarice Lispector/ Luz da Noite
TTITLE16=Eu Fui a Europa/ Gas Neon/ Luzes da Ribalta/ Chao de Estrelas/ Sinal Fechado
EXTD=
EXTT0=
EXTT1=
EXTT2=
EXTT3=
EXTT4=
EXTT5=
EXTT6=
EXTT7=
EXTT8=
EXTT9=
EXTT10=
EXTT11=
EXTT12=
EXTT13=
EXTT14=
EXTT15=
EXTT16=
PLAYORDER=
